{
	"asset":{
		"version":"2.0",
		"generator":"Created using the official Cinema 4D glTF Exporter 1.000x290161"
	},
	"scenes":[{
		"nodes":[0]
	}],
	"nodes":[{
		"name":"vessel.obj",
		"children":[1,
		2,
		3,
		4,
		5,
		6]
	},
	{
		"name":"Carlingue",
		"mesh":0
	},
	{
		"name":"Verre",
		"mesh":1
	},
	{
		"name":"vert",
		"mesh":2
	},
	{
		"name":"vert2",
		"mesh":3
	},
	{
		"name":"Ramparde",
		"mesh":4
	},
	{
		"name":"lumiere",
		"mesh":5
	}],
	"meshes":[{
		"primitives":[{
			"attributes":{
				"POSITION":1,
				"NORMAL":2,
				"TEXCOORD_0":3
			},
			"indices":0,
			"material":0
		}]
	},
	{
		"primitives":[{
			"attributes":{
				"POSITION":5,
				"NORMAL":6,
				"TEXCOORD_0":7
			},
			"indices":4,
			"material":1
		}]
	},
	{
		"primitives":[{
			"attributes":{
				"POSITION":9,
				"NORMAL":10,
				"TEXCOORD_0":11
			},
			"indices":8,
			"material":2
		}]
	},
	{
		"primitives":[{
			"attributes":{
				"POSITION":13,
				"NORMAL":14,
				"TEXCOORD_0":15
			},
			"indices":12,
			"material":2
		}]
	},
	{
		"primitives":[{
			"attributes":{
				"POSITION":17,
				"NORMAL":18,
				"TEXCOORD_0":19
			},
			"indices":16,
			"material":1
		}]
	},
	{
		"primitives":[{
			"attributes":{
				"POSITION":21,
				"NORMAL":22,
				"TEXCOORD_0":23
			},
			"indices":20,
			"material":3
		}]
	}],
	"accessors":[{
		"bufferView":0,
		"type":"SCALAR",
		"componentType":5123,
		"count":74280,
		"byteOffset":0,
		"min":[0],
		"max":[26565]
	},
	{
		"bufferView":1,
		"type":"VEC3",
		"componentType":5126,
		"count":26566,
		"byteOffset":0,
		"min":[-9099.970703125,
		-5350.107421875,
		1351.861328125],
		"max":[8020.11083984375,
		3536.53076171875,
		41973.79296875]
	},
	{
		"bufferView":1,
		"type":"VEC3",
		"componentType":5126,
		"count":26566,
		"byteOffset":12,
		"min":[-1.0,
		-1.0,
		-0.9999942779541016],
		"max":[0.9999995231628418,
		1.0,
		0.9998888373374939]
	},
	{
		"bufferView":1,
		"type":"VEC2",
		"componentType":5126,
		"count":26566,
		"byteOffset":24,
		"min":[0.0066168420016765598,
		0.0066168420016765598],
		"max":[0.9933831691741943,
		0.9922158718109131]
	},
	{
		"bufferView":2,
		"type":"SCALAR",
		"componentType":5123,
		"count":13317,
		"byteOffset":0,
		"min":[0],
		"max":[2902]
	},
	{
		"bufferView":3,
		"type":"VEC3",
		"componentType":5126,
		"count":2903,
		"byteOffset":0,
		"min":[-7814.107421875,
		-3667.8291015625,
		-878.7070922851563],
		"max":[6735.0712890625,
		3709.96484375,
		40317.9609375]
	},
	{
		"bufferView":3,
		"type":"VEC3",
		"componentType":5126,
		"count":2903,
		"byteOffset":12,
		"min":[-0.9997450709342957,
		-1.0,
		-0.9993980526924133],
		"max":[0.9996455311775208,
		0.9999526143074036,
		0.9990720152854919]
	},
	{
		"bufferView":3,
		"type":"VEC2",
		"componentType":5126,
		"count":2903,
		"byteOffset":24,
		"min":[0.007788726128637791,
		0.007788726128637791],
		"max":[0.9033372402191162,
		0.9922112226486206]
	},
	{
		"bufferView":4,
		"type":"SCALAR",
		"componentType":5123,
		"count":2772,
		"byteOffset":0,
		"min":[0],
		"max":[1554]
	},
	{
		"bufferView":5,
		"type":"VEC3",
		"componentType":5126,
		"count":1555,
		"byteOffset":0,
		"min":[-9051.408203125,
		-900.818603515625,
		887.7142944335938],
		"max":[7971.40771484375,
		1696.1103515625,
		38569.99609375]
	},
	{
		"bufferView":5,
		"type":"VEC3",
		"componentType":5126,
		"count":1555,
		"byteOffset":12,
		"min":[-0.9976257085800171,
		-1.0,
		-0.9968303442001343],
		"max":[0.9999327063560486,
		1.0,
		0.9942971467971802]
	},
	{
		"bufferView":5,
		"type":"VEC2",
		"componentType":5126,
		"count":1555,
		"byteOffset":24,
		"min":[0.007708064280450344,
		0.007708064280450344],
		"max":[0.9490458965301514,
		0.9922919273376465]
	},
	{
		"bufferView":6,
		"type":"SCALAR",
		"componentType":5123,
		"count":1266,
		"byteOffset":0,
		"min":[0],
		"max":[784]
	},
	{
		"bufferView":7,
		"type":"VEC3",
		"componentType":5126,
		"count":785,
		"byteOffset":0,
		"min":[-7692.486328125,
		448.979248046875,
		32631.59375],
		"max":[6602.05322265625,
		677.127197265625,
		41984.859375]
	},
	{
		"bufferView":7,
		"type":"VEC3",
		"componentType":5126,
		"count":785,
		"byteOffset":12,
		"min":[-0.9998831748962402,
		-0.9999924898147583,
		-0.9922154545783997],
		"max":[0.9999334216117859,
		0.9999266862869263,
		0.998960554599762]
	},
	{
		"bufferView":7,
		"type":"VEC2",
		"componentType":5126,
		"count":785,
		"byteOffset":24,
		"min":[0.00850155483931303,
		0.008501553907990456],
		"max":[0.9747645854949951,
		0.9914984703063965]
	},
	{
		"bufferView":8,
		"type":"SCALAR",
		"componentType":5123,
		"count":4503,
		"byteOffset":0,
		"min":[0],
		"max":[2148]
	},
	{
		"bufferView":9,
		"type":"VEC3",
		"componentType":5126,
		"count":2149,
		"byteOffset":0,
		"min":[-9097.1689453125,
		-923.724365234375,
		7983.265625],
		"max":[8009.74951171875,
		2072.5791015625,
		38425.89453125]
	},
	{
		"bufferView":9,
		"type":"VEC3",
		"componentType":5126,
		"count":2149,
		"byteOffset":12,
		"min":[-0.9999967217445374,
		-0.9999995231628418,
		-1.0],
		"max":[0.9999119639396668,
		1.0,
		1.0]
	},
	{
		"bufferView":9,
		"type":"VEC2",
		"componentType":5126,
		"count":2149,
		"byteOffset":24,
		"min":[0.0068560875952243809,
		0.0068560875952243809],
		"max":[0.9370147585868836,
		0.9931439161300659]
	},
	{
		"bufferView":10,
		"type":"SCALAR",
		"componentType":5123,
		"count":2025,
		"byteOffset":0,
		"min":[0],
		"max":[1257]
	},
	{
		"bufferView":11,
		"type":"VEC3",
		"componentType":5126,
		"count":1258,
		"byteOffset":0,
		"min":[-8525.759765625,
		174.924072265625,
		8765.4306640625],
		"max":[7445.91259765625,
		340.874267578125,
		22485.689453125]
	},
	{
		"bufferView":11,
		"type":"VEC3",
		"componentType":5126,
		"count":1258,
		"byteOffset":12,
		"min":[-0.9971258640289307,
		-0.9987624287605286,
		-0.9910545945167542],
		"max":[0.9999792575836182,
		0.9984051585197449,
		0.979227602481842]
	},
	{
		"bufferView":11,
		"type":"VEC2",
		"componentType":5126,
		"count":1258,
		"byteOffset":24,
		"min":[0.008215745911002159,
		0.008215745911002159],
		"max":[0.9880735874176025,
		0.9917842149734497]
	}],
	"bufferViews":[{
		"buffer":0,
		"byteOffset":0,
		"byteLength":148560,
		"target":34963
	},
	{
		"buffer":0,
		"byteOffset":148560,
		"byteLength":850112,
		"target":34962,
		"byteStride":32
	},
	{
		"buffer":1,
		"byteOffset":0,
		"byteLength":26634,
		"target":34963
	},
	{
		"buffer":1,
		"byteOffset":26636,
		"byteLength":92896,
		"target":34962,
		"byteStride":32
	},
	{
		"buffer":2,
		"byteOffset":0,
		"byteLength":5544,
		"target":34963
	},
	{
		"buffer":2,
		"byteOffset":5544,
		"byteLength":49760,
		"target":34962,
		"byteStride":32
	},
	{
		"buffer":3,
		"byteOffset":0,
		"byteLength":2532,
		"target":34963
	},
	{
		"buffer":3,
		"byteOffset":2532,
		"byteLength":25120,
		"target":34962,
		"byteStride":32
	},
	{
		"buffer":4,
		"byteOffset":0,
		"byteLength":9006,
		"target":34963
	},
	{
		"buffer":4,
		"byteOffset":9008,
		"byteLength":68768,
		"target":34962,
		"byteStride":32
	},
	{
		"buffer":5,
		"byteOffset":0,
		"byteLength":4050,
		"target":34963
	},
	{
		"buffer":5,
		"byteOffset":4052,
		"byteLength":40256,
		"target":34962,
		"byteStride":32
	}],
	"buffers":[{
		"uri":"data:application/octet-stream;base64,",
		"byteLength":998672
	},
	{
		"uri":"data:application/octet-stream;base64,",
		"byteLength":119532
	},
	{
		"uri":"data:application/octet-stream;base64,",
		"byteLength":55304
	},
	{
		"uri":"data:application/octet-stream;base64,",
		"byteLength":27652
	},
	{
		"uri":"data:application/octet-stream;base64,",
		"byteLength":77776
	},
	{
		"uri":"data:application/octet-stream;base64,",
		"byteLength":44308
	}],
	"materials":[{
		"pbrMetallicRoughness":{
			"baseColorFactor":[0.8,
			0.8,
			0.8,
			1.0],
			"metallicFactor":0.03,
			"roughnessFactor":0.15
		},
		"emissiveFactor":[0.0,
		0.0,
		0.0],
		"alphaMode":"OPAQUE",
		"doubleSided":false,
		"name":"Carlingue"
	},
	{
		"pbrMetallicRoughness":{
			"baseColorFactor":[1.0,
			1.0,
			1.0,
			0.5],
			"metallicFactor":1.0,
			"roughnessFactor":1.0
		},
		"emissiveFactor":[0.0,
		0.0,
		0.0],
		"alphaMode":"BLEND",
		"doubleSided":false,
		"name":"verre"
	},
	{
		"pbrMetallicRoughness":{
			"baseColorFactor":[0.0,
			0.52,
			0.017333333333333275,
			1.0],
			"metallicFactor":0.0,
			"roughnessFactor":0.5
		},
		"emissiveFactor":[0.0,
		0.0,
		0.0],
		"alphaMode":"OPAQUE",
		"doubleSided":false,
		"name":"vert"
	},
	{
		"pbrMetallicRoughness":{
			"baseColorFactor":[0.8,
			0.13599999999999996,
			0.13599999999999996,
			1.0],
			"metallicFactor":0.1,
			"roughnessFactor":0.05
		},
		"emissiveFactor":[0.0,
		0.0,
		0.0],
		"alphaMode":"OPAQUE",
		"doubleSided":false,
		"name":"red"
	}]
}